<svg id="Layer_1" data-name="Layer 1" xmlns="http://www.w3.org/2000/svg" xmlns:xlink="http://www.w3.org/1999/xlink" viewBox="0 0 103.24 103.24"><defs><style>.cls-1{fill:url(#linear-gradient);}.cls-2{fill:#f7f4e1;}</style><linearGradient id="linear-gradient" x1="22.96" y1="9.89" x2="79.82" y2="92.69" gradientUnits="userSpaceOnUse"><stop offset="0" stop-color="#00cd90"/><stop offset="1" stop-color="#00adee"/></linearGradient></defs><title>Kinetic Circle Icon</title><circle class="cls-1" cx="51.62" cy="51.62" r="51.62"/><path class="cls-2" d="M43.58,36.14s-3.7,8-3.15,23.88,5.28,25.87,11.38,24.9,10-13.72,11-26.4-.71-25-3.51-31.65-5.83-7.63-7.18-5.8c0,0-.27.52.65.67s3.57.19,5.45,6.43,3.23,21.6.61,36.63S48.64,87,44.91,72.4a75.29,75.29,0,0,1-.86-32C44.89,36.69,44.93,34.57,43.58,36.14Z"/><path class="cls-2" d="M50.79,23a2.17,2.17,0,0,0,.81-1.13c.1-.61-1.32-.11-1.68.24S47.25,24,46.61,25.3s-1.19,3.28-.22,3a2.43,2.43,0,0,0,1.86-1.59c.6-1.21.76-1.15,1.12-2S50.43,23.51,50.79,23Z"/><path class="cls-2" d="M69,57.45s-3.18-8.23-15-18.88S31.8,24.36,28.25,29.41s2.87,16.76,11.28,26.3S58,72.6,64.71,75.21s9.53,1.12,9.16-1.12c0,0-.19-.56-.93,0s-2.62,2.43-8.41-.56S46,60.82,37,48.48s-8.6-22.25,4.49-14.77S63.58,51.66,65.64,54.84,69.19,59.51,69,57.45Z"/><path class="cls-2" d="M73.43,71.79a2.18,2.18,0,0,0,.25,1.37c.37.5,1-.87,1-1.37s.5-3.24,0-4.61-1.46-3-2-2.24a3.82,3.82,0,0,0-.12,2.43c.19,1.33.65,1.68.75,2.52S73.31,71.16,73.43,71.79Z"/><path class="cls-2" d="M67.25,43.91s-7.94-3.83-23.82-3.57-26,4.83-25.1,10.94S31.88,61.57,44.54,62.78s25-.28,31.71-3,7.73-5.7,5.92-7.08c0,0-.52-.28-.68.64s-.25,3.56-6.53,5.34-21.65,3.6-36.64.73S16.3,48.84,31,45.35s28.37-2,32-1.06S68.79,45.28,67.25,43.91Z"/><path class="cls-2" d="M80.28,51.35a2.18,2.18,0,0,0,1.12.83c.61.11.13-1.32-.21-1.68S79.33,47.79,78,47.13s-3.15-1.27-3-.28c.13.78.95.88,1.53,1.44,1,.93,1.5,1,2.24,1.78A10,10,0,0,0,80.28,51.35Z"/><path class="cls-2" d="M56.68,34.58s-8.22,3.19-18.86,15S23.63,71.82,28.69,75.37,45.45,72.48,55,64.06s16.86-18.47,19.47-25.2,1.11-9.54-1.13-9.16c0,0-.56.19,0,.93s2.43,2.61-.55,8.41S60.82,56.82,48.49,65.81s-23,9.38-15.52-3.72S50.89,40,54.06,37.95,58.73,34.39,56.68,34.58Z"/><path class="cls-2" d="M71,30.13a2.18,2.18,0,0,0,1.37-.25c.5-.38-.87-1-1.37-1s-3.24-.49-4.61,0-2.93,1.27-2.24,2a1.71,1.71,0,0,0,2.33.11,5,5,0,0,1,2.62-.84C70.22,30,70.38,30.26,71,30.13Z"/><circle class="cls-2" cx="51.37" cy="52.03" r="6.53"/></svg>